# xmcd CD database file generated by Grip 2.91
# 
# Track frame offsets:
#       150
#       13475
#       30300
#       44793
#       60045
#       68930
#       79650
#       89235
#       97375
#       111755
#       125733
#       142788
#       153618
#       164723
# 
# Disc length: 2338 seconds
# 
# Revision: 3
# Processed by: cddbd v1.4b41PL1 Copyright (c) Steve Scherf et al.
# Submitted via: Grip 2.91
# 
DISCID=ca09200e
DTITLE=Traditional Jewish Melodies - HAVA NAGILA
DYEAR=1900
DGENRE=
TTITLE0=Hava Nagila
TTITLE1=What Used To Be, Used To Be (and Now It Ain't)(Vus Is Gevant)
TTITLE2=Rabbi Elimelech
TTITLE3=The Sun Went Down
TTITLE4=Can I Now Hora
TTITLE5=You Have Chosen Us
TTITLE6=Chanukah Song
TTITLE7=The Welcoming Melody
TTITLE8=Bei Mir Bist Du Schoen (Means That You're Grand)
TTITLE9=Mitzva Dances
TTITLE10=Keep Well
TTITLE11=Ten Brothers
TTITLE12=Rosalie
TTITLE13=The Blessing
EXTD=
EXTT0=
EXTT1=
EXTT2=
EXTT3=
EXTT4=
EXTT5=
EXTT6=
EXTT7=
EXTT8=
EXTT9=
EXTT10=
EXTT11=
EXTT12=
EXTT13=
PLAYORDER=
